<?xml version="1.0" encoding="utf-8"?>
<!-- Generator: Adobe Illustrator 14.0.0, SVG Export Plug-In . SVG Version: 6.00 Build 43363)  -->
<!DOCTYPE svg PUBLIC "-//W3C//DTD SVG 1.1//EN" "http://www.w3.org/Graphics/SVG/1.1/DTD/svg11.dtd">
<svg version="1.1" id="Layer_1" xmlns="http://www.w3.org/2000/svg" xmlns:xlink="http://www.w3.org/1999/xlink" x="0px" y="0px"
	 width="277.667px" height="244px" viewBox="0 0 277.667 244" enable-background="new 0 0 277.667 244" xml:space="preserve">
<rect fill="#FFFFFF" width="277.667" height="244"/>
<g>
	<path fill="#FFFFFF" stroke="#5A9A00" stroke-width="7" d="M262.789,212.851c0,10.184-54.933,18.439-122.695,18.439
		c-67.762,0-122.695-8.256-122.695-18.439"/>
	<path fill="#FFFFFF" stroke="#5A9A00" stroke-width="7" d="M262.789,76.681v136.17 M17.399,212.851V76.681 M262.789,76.681
		c0-10.184-54.933-18.44-122.695-18.44c-67.762,0-122.695,8.256-122.695,18.44"/>
</g>
<g id="XMLID_2_">
	<g>
		<path fill="#5A9A00" d="M140.049,158.901c-63.538,0-115.044-7.746-115.044-17.291v-25.937c0,9.546,51.507,17.291,115.044,17.291
			c63.537,0,115.054-7.745,115.054-17.291v25.937C255.103,151.156,203.586,158.901,140.049,158.901z"/>
	</g>
	<g>
		<path fill="none" stroke="#5A9A00" d="M140.049,132.965c63.537,0,115.054-7.745,115.054-17.291"/>
		<path fill="none" stroke="#5A9A00" d="M25.005,115.674c0,9.546,51.507,17.291,115.044,17.291"/>
		<path fill="none" stroke="#5A9A00" d="M140.049,158.901c63.537,0,115.054-7.746,115.054-17.291"/>
		<path fill="none" stroke="#5A9A00" d="M25.005,141.61c0,9.545,51.507,17.291,115.044,17.291"/>
		<line fill="none" stroke="#5A9A00" x1="25.005" y1="115.674" x2="25.005" y2="141.61"/>
		<line fill="none" stroke="#5A9A00" x1="255.103" y1="115.674" x2="255.103" y2="141.61"/>
	</g>
</g>
<g>
	<g>
		<path fill="#FFFFFF" d="M132.903,149.859c-0.013,1.071-0.02,1.607-0.033,2.678c-3.831-0.077-5.746-0.142-9.574-0.322
			c0.157-5.538,0.234-8.306,0.391-13.844c1.26,0.06,1.89,0.086,3.15,0.135c-0.102,4.468-0.153,6.703-0.255,11.17
			C129.109,149.772,130.374,149.808,132.903,149.859z"/>
		<path fill="#FFFFFF" d="M144.87,147.297c0.007,0.826-0.112,1.584-0.354,2.274c-0.242,0.689-0.595,1.28-1.06,1.771
			c-0.465,0.491-1.024,0.874-1.678,1.143s-1.391,0.403-2.205,0.402c-0.801-0.001-1.528-0.137-2.182-0.408
			c-0.654-0.271-1.215-0.654-1.679-1.146c-0.464-0.492-0.823-1.083-1.078-1.773c-0.254-0.69-0.378-1.449-0.37-2.275
			s0.15-1.578,0.422-2.253c0.271-0.676,0.644-1.25,1.115-1.724s1.029-0.841,1.674-1.103s1.346-0.393,2.104-0.392
			c0.771,0.001,1.479,0.133,2.124,0.396s1.199,0.631,1.663,1.106s0.829,1.05,1.093,1.727S144.863,146.471,144.87,147.297z
			 M141.75,147.326c-0.003-0.92-0.192-1.641-0.568-2.166c-0.375-0.525-0.91-0.787-1.603-0.788c-0.694-0.001-1.232,0.26-1.615,0.784
			c-0.383,0.524-0.578,1.245-0.582,2.165c-0.004,0.919,0.186,1.651,0.568,2.193c0.382,0.542,0.923,0.814,1.625,0.815
			c0.701,0.001,1.24-0.27,1.616-0.811S141.753,148.245,141.75,147.326z"/>
		<path fill="#FFFFFF" d="M156.644,150.897c0.049,1.718-0.366,3.016-1.251,3.888c-0.885,0.872-2.28,1.346-4.182,1.406
			c-0.666,0.021-1.335-0.016-2.002-0.112c-0.668-0.096-1.286-0.233-1.857-0.408c0.204-1.004,0.305-1.505,0.507-2.51
			c0.486,0.176,0.994,0.31,1.528,0.403c0.534,0.092,1.14,0.129,1.817,0.108c0.884-0.028,1.506-0.238,1.864-0.625
			c0.357-0.387,0.528-0.873,0.514-1.459c-0.003-0.152-0.004-0.228-0.008-0.38c-0.327,0.16-0.665,0.282-1.015,0.367
			c-0.35,0.086-0.731,0.136-1.145,0.149c-1.501,0.048-2.659-0.354-3.468-1.195c-0.809-0.841-1.221-2.037-1.238-3.583
			c-0.009-0.772,0.107-1.478,0.345-2.116c0.238-0.638,0.586-1.189,1.048-1.653s1.029-0.826,1.703-1.092
			c0.673-0.266,1.436-0.413,2.289-0.442c0.366-0.013,0.743-0.01,1.13,0.009s0.769,0.047,1.149,0.085
			c0.38,0.038,0.745,0.085,1.092,0.143c0.348,0.058,0.657,0.121,0.93,0.188C156.494,145.6,156.543,147.365,156.644,150.897z
			 M149.824,146.874c0.028,1.666,0.736,2.48,2.121,2.433c0.315-0.011,0.609-0.061,0.882-0.151c0.272-0.089,0.502-0.191,0.692-0.306
			c-0.044-1.902-0.066-2.853-0.11-4.755c-0.15-0.021-0.327-0.038-0.532-0.051s-0.443-0.013-0.715-0.004
			c-0.802,0.028-1.394,0.305-1.779,0.836S149.811,146.074,149.824,146.874z"/>
	</g>
</g>
<g id="XMLID_1_">
	<g>
		<path fill="#5A9A00" d="M25.045,204.504v-25.937c0,9.546,51.507,17.291,115.044,17.291s115.054-7.745,115.054-17.291v25.937
			c0,9.545-51.516,17.291-115.054,17.291S25.045,214.049,25.045,204.504z"/>
	</g>
	<g>
		<path fill="none" stroke="#5A9A00" d="M140.089,195.858c63.538,0,115.054-7.745,115.054-17.291"/>
		<path fill="none" stroke="#5A9A00" d="M25.045,178.567c0,9.546,51.507,17.291,115.044,17.291"/>
		<path fill="none" stroke="#5A9A00" d="M140.089,221.795c63.538,0,115.054-7.746,115.054-17.291"/>
		<path fill="none" stroke="#5A9A00" d="M25.045,204.504c0,9.545,51.507,17.291,115.044,17.291"/>
		<line fill="none" stroke="#5A9A00" x1="25.045" y1="178.567" x2="25.045" y2="204.504"/>
		<line fill="none" stroke="#5A9A00" x1="255.143" y1="178.567" x2="255.143" y2="204.504"/>
	</g>
</g>
<g id="XMLID_3_">
	<g>
		<path fill="#5A9A00" d="M255.036,152.37v25.937c0,9.545-51.516,17.291-115.054,17.291c-63.537,0-115.044-7.745-115.044-17.291
			V152.37c0,9.546,51.507,17.291,115.044,17.291C203.52,169.661,255.036,161.916,255.036,152.37z"/>
	</g>
	<g>
		<path fill="none" stroke="#5A9A00" d="M139.982,169.661c63.538,0,115.054-7.745,115.054-17.291"/>
		<path fill="none" stroke="#5A9A00" d="M24.938,152.37c0,9.546,51.507,17.291,115.044,17.291"/>
		<path fill="none" stroke="#5A9A00" d="M139.982,195.597c63.538,0,115.054-7.745,115.054-17.291"/>
		<path fill="none" stroke="#5A9A00" d="M24.938,178.306c0,9.545,51.507,17.291,115.044,17.291"/>
		<line fill="none" stroke="#5A9A00" x1="24.938" y1="152.37" x2="24.938" y2="178.306"/>
		<line fill="none" stroke="#5A9A00" x1="255.036" y1="152.37" x2="255.036" y2="178.306"/>
	</g>
</g>
<g>
	<g>
		<path fill="#FFFFFF" d="M59.174,197.155c0.443,0.046,0.809,0.047,1.099,0.004c0.289-0.042,0.52-0.119,0.695-0.227
			c0.174-0.108,0.297-0.244,0.365-0.41c0.067-0.165,0.101-0.355,0.102-0.567c0-0.45-0.214-0.846-0.644-1.188
			c-0.43-0.342-1.18-0.734-2.215-1.194c-0.454-0.202-0.914-0.438-1.37-0.692c-0.456-0.254-0.866-0.556-1.228-0.907
			c-0.362-0.351-0.657-0.761-0.885-1.23c-0.228-0.469-0.341-1.022-0.34-1.658s0.123-1.196,0.365-1.68
			c0.243-0.483,0.586-0.88,1.03-1.19s0.98-0.527,1.612-0.652c0.631-0.125,1.345-0.146,2.138-0.064
			c0.94,0.097,1.751,0.279,2.437,0.547c0.685,0.267,1.25,0.543,1.693,0.825c-0.364,0.942-0.547,1.412-0.911,2.354
			c-0.39-0.238-0.823-0.457-1.299-0.657c-0.477-0.201-1.051-0.335-1.723-0.404c-0.752-0.078-1.293-0.032-1.623,0.139
			s-0.494,0.468-0.495,0.893c0,0.252,0.061,0.471,0.181,0.655c0.121,0.185,0.292,0.36,0.513,0.522
			c0.221,0.163,0.477,0.314,0.765,0.457s0.612,0.29,0.957,0.447c0.721,0.329,1.356,0.665,1.893,0.977
			c0.537,0.312,0.984,0.659,1.34,1.039c0.355,0.38,0.621,0.808,0.795,1.289c0.174,0.481,0.26,1.053,0.259,1.716
			c-0.001,1.286-0.459,2.239-1.374,2.857c-0.915,0.619-2.293,0.835-4.134,0.644c-0.618-0.064-1.176-0.162-1.672-0.287
			c-0.497-0.126-0.938-0.261-1.32-0.408c-0.383-0.147-0.711-0.296-0.986-0.445c-0.275-0.149-0.507-0.288-0.695-0.415
			c0.356-0.947,0.534-1.421,0.89-2.369c0.416,0.271,0.93,0.53,1.541,0.774C57.539,196.893,58.287,197.063,59.174,197.155z"/>
		<path fill="#FFFFFF" d="M76.826,195.911c-0.001,0.822-0.124,1.563-0.367,2.227c-0.243,0.663-0.594,1.217-1.052,1.662
			c-0.458,0.446-1.007,0.775-1.646,0.986s-1.355,0.28-2.149,0.21c-0.78-0.069-1.49-0.265-2.128-0.588
			c-0.639-0.323-1.187-0.748-1.643-1.274c-0.457-0.526-0.811-1.143-1.066-1.849c-0.255-0.707-0.382-1.471-0.381-2.293
			s0.132-1.558,0.396-2.209c0.263-0.651,0.627-1.193,1.091-1.627s1.017-0.754,1.656-0.961s1.334-0.277,2.088-0.211
			c0.767,0.067,1.469,0.262,2.107,0.581s1.186,0.737,1.643,1.252s0.814,1.12,1.069,1.817S76.827,195.089,76.826,195.911z
			 M73.758,195.655c0.001-0.915-0.184-1.649-0.553-2.205c-0.369-0.555-0.897-0.862-1.583-0.923
			c-0.686-0.061-1.219,0.154-1.596,0.643c-0.377,0.49-0.565,1.192-0.566,2.107c-0.001,0.915,0.186,1.657,0.562,2.228
			c0.375,0.571,0.909,0.887,1.595,0.947c0.686,0.061,1.212-0.163,1.583-0.668S73.757,196.569,73.758,195.655z"/>
		<path fill="#FFFFFF" d="M85.551,193.987c-0.27-0.085-0.586-0.178-0.95-0.276c-0.363-0.099-0.753-0.163-1.17-0.193
			c-0.189-0.014-0.414-0.014-0.676,0c-0.263,0.014-0.462,0.035-0.597,0.064c-0.003,3.197-0.005,4.796-0.008,7.992
			c-1.204-0.09-1.806-0.135-3.009-0.229c0.004-3.96,0.006-5.94,0.01-9.9c0.539-0.143,1.175-0.269,1.909-0.379
			c0.733-0.11,1.551-0.134,2.453-0.068c0.161,0.012,0.357,0.038,0.585,0.074s0.457,0.08,0.686,0.129
			c0.229,0.049,0.458,0.104,0.687,0.167c0.229,0.063,0.425,0.132,0.586,0.21C85.855,192.541,85.753,193.023,85.551,193.987z"/>
		<path fill="#FFFFFF" d="M87.573,188.897c1.204-0.109,1.807-0.166,3.011-0.28c-0.001,1.232-0.003,1.85-0.004,3.082
			c1.446,0.092,2.17,0.135,3.617,0.221c-0.001,0.986,0,1.479,0,2.465c-1.447-0.085-2.17-0.129-3.617-0.221
			c-0.001,1.471-0.001,2.207-0.002,3.678c0,0.623,0.109,1.128,0.331,1.513c0.222,0.385,0.67,0.598,1.344,0.64
			c0.323,0.02,0.657,0.011,1.001-0.028c0.343-0.039,0.656-0.104,0.938-0.194c0.169,0.933,0.254,1.4,0.423,2.333
			c-0.364,0.125-0.767,0.226-1.212,0.305s-0.991,0.099-1.638,0.059c-0.822-0.051-1.502-0.203-2.041-0.457
			c-0.539-0.254-0.97-0.587-1.292-1c-0.323-0.413-0.547-0.901-0.674-1.467c-0.128-0.565-0.192-1.185-0.192-1.861
			C87.569,194.17,87.57,192.412,87.573,188.897z"/>
		<path fill="#FFFFFF" d="M95.729,197.316c0-0.927,0.147-1.731,0.438-2.411c0.29-0.68,0.669-1.238,1.142-1.676
			s1.014-0.759,1.627-0.965c0.613-0.207,1.245-0.293,1.892-0.26c1.509,0.076,2.701,0.585,3.576,1.533
			c0.875,0.948,1.313,2.304,1.312,4.066c0,0.172-0.008,0.36-0.021,0.565c-0.014,0.205-0.027,0.386-0.04,0.545
			c-2.734-0.121-4.102-0.188-6.834-0.332c0.067,0.613,0.356,1.113,0.868,1.498c0.512,0.384,1.2,0.598,2.063,0.641
			c0.553,0.027,1.095,0.003,1.628-0.071c0.532-0.074,0.968-0.177,1.305-0.308c0.161,0.97,0.241,1.455,0.402,2.424
			c-0.162,0.072-0.377,0.142-0.646,0.209c-0.27,0.067-0.571,0.123-0.901,0.167s-0.684,0.077-1.061,0.099
			c-0.377,0.021-0.756,0.023-1.133,0.004c-0.957-0.047-1.79-0.23-2.497-0.546c-0.708-0.315-1.292-0.729-1.757-1.238
			s-0.807-1.102-1.029-1.778C95.839,198.808,95.729,198.084,95.729,197.316z M102.804,196.553c-0.013-0.252-0.056-0.5-0.129-0.742
			c-0.074-0.242-0.188-0.458-0.343-0.651c-0.155-0.193-0.352-0.355-0.587-0.486c-0.236-0.13-0.527-0.206-0.878-0.223
			c-0.337-0.017-0.628,0.024-0.87,0.125c-0.243,0.1-0.444,0.239-0.606,0.416c-0.162,0.177-0.289,0.385-0.376,0.626
			c-0.088,0.24-0.151,0.487-0.191,0.737C100.415,196.439,101.211,196.477,102.804,196.553z"/>
		<path fill="#FFFFFF" d="M117.422,203.062c-0.27,0.072-0.58,0.138-0.93,0.2s-0.718,0.112-1.103,0.153
			c-0.384,0.041-0.775,0.073-1.173,0.093c-0.397,0.02-0.779,0.021-1.143,0.009c-0.876-0.03-1.659-0.183-2.346-0.46
			c-0.688-0.277-1.267-0.663-1.738-1.152c-0.472-0.489-0.833-1.072-1.082-1.752c-0.25-0.679-0.372-1.437-0.371-2.272
			c0-0.848,0.108-1.609,0.324-2.282s0.527-1.242,0.932-1.703c0.405-0.461,0.899-0.805,1.486-1.034s1.256-0.331,2.011-0.304
			c0.417,0.015,0.793,0.068,1.124,0.159s0.664,0.213,1.001,0.371c0.001-1.893,0.001-2.838,0.002-4.731
			c1.206-0.151,1.807-0.229,3.013-0.384C117.426,194.007,117.425,197.026,117.422,203.062z M110.609,197.862
			c0,0.915,0.208,1.658,0.626,2.23c0.417,0.572,1.038,0.875,1.86,0.903c0.27,0.009,0.519,0.007,0.748-0.005
			c0.229-0.012,0.418-0.029,0.566-0.051c0.001-2.155,0-3.232,0.001-5.387c-0.189-0.125-0.434-0.234-0.737-0.324
			c-0.304-0.09-0.61-0.139-0.92-0.15C111.326,195.027,110.61,195.953,110.609,197.862z"/>
		<path fill="#FFFFFF" d="M135.714,189.938c0,1.058,0,1.585,0,2.643c-1.691-0.009-2.536-0.017-4.228-0.035
			c0,4.453-0.001,6.68-0.001,11.133c-1.263-0.014-1.895-0.022-3.157-0.041c0.001-4.453,0.001-6.68,0.002-11.133
			c-1.691-0.025-2.537-0.041-4.229-0.075c0-1.058,0-1.585,0-2.643C128.746,189.882,131.069,189.913,135.714,189.938z"/>
		<path fill="#FFFFFF" d="M139.842,192.992c0.89,0,1.632,0.098,2.226,0.295s1.069,0.481,1.426,0.85
			c0.357,0.37,0.609,0.818,0.758,1.348c0.148,0.529,0.223,1.119,0.223,1.769c0,2.465,0,3.698,0,6.163
			c-0.432,0.095-1.031,0.207-1.8,0.335c-0.769,0.129-1.7,0.195-2.792,0.195c-0.688,0-1.313-0.062-1.872-0.183
			c-0.56-0.121-1.042-0.316-1.447-0.59s-0.714-0.63-0.93-1.069c-0.216-0.438-0.325-0.978-0.325-1.614
			c0-0.609,0.127-1.124,0.376-1.547s0.582-0.759,1-1.009c0.418-0.25,0.897-0.43,1.437-0.542c0.54-0.111,1.099-0.167,1.68-0.167
			c0.391,0,0.738,0.018,1.041,0.05c0.304,0.033,0.551,0.075,0.74,0.127c0-0.111-0.001-0.167-0.001-0.279
			c0-0.503-0.155-0.908-0.465-1.212s-0.848-0.455-1.617-0.455c-0.513,0-1.02,0.035-1.519,0.106s-0.93,0.172-1.294,0.303
			c-0.154-0.955-0.23-1.431-0.384-2.386c0.175-0.052,0.394-0.109,0.657-0.168c0.263-0.058,0.55-0.109,0.86-0.155
			c0.31-0.046,0.637-0.085,0.98-0.117C139.144,193.008,139.491,192.992,139.842,192.992z M140.084,201.66
			c0.296,0,0.58-0.007,0.85-0.021c0.27-0.013,0.487-0.034,0.648-0.061c0-0.898,0-1.347,0-2.245c-0.122-0.026-0.304-0.053-0.547-0.08
			c-0.243-0.026-0.465-0.041-0.667-0.041c-0.284,0-0.55,0.018-0.799,0.05c-0.25,0.033-0.469,0.097-0.658,0.189
			s-0.336,0.217-0.445,0.376s-0.161,0.357-0.161,0.596c0,0.464,0.157,0.786,0.475,0.965
			C139.097,201.569,139.531,201.66,140.084,201.66z"/>
		<path fill="#FFFFFF" d="M157.101,198.312c0,0.835-0.125,1.594-0.374,2.275c-0.25,0.682-0.61,1.265-1.082,1.751
			c-0.473,0.487-1.052,0.866-1.74,1.137c-0.688,0.271-1.47,0.412-2.347,0.425c-0.365,0.005-0.747-0.004-1.145-0.032
			s-0.788-0.067-1.172-0.115c-0.385-0.049-0.753-0.107-1.104-0.176s-0.661-0.141-0.931-0.218c0-5.845-0.002-8.768-0.002-14.613
			c1.206-0.202,1.809-0.305,3.014-0.511c0,2.083,0.001,3.125,0.002,5.208c0.337-0.15,0.687-0.267,1.051-0.352
			s0.756-0.13,1.174-0.137c0.755-0.012,1.422,0.106,2.002,0.354c0.58,0.248,1.066,0.605,1.457,1.074
			c0.391,0.47,0.688,1.037,0.891,1.702C157,196.748,157.101,197.49,157.101,198.312z M154.025,198.293
			c0-1.909-0.717-2.849-2.146-2.827c-0.311,0.005-0.615,0.048-0.919,0.132c-0.303,0.084-0.551,0.188-0.739,0.31
			c0,2.155,0,3.233,0.001,5.388c0.148,0.025,0.338,0.044,0.567,0.061c0.229,0.017,0.479,0.023,0.749,0.019
			c0.822-0.012,1.443-0.3,1.861-0.864C153.817,199.948,154.025,199.208,154.025,198.293z"/>
		<path fill="#FFFFFF" d="M163.677,203.569c-0.877,0.013-1.588-0.061-2.134-0.218c-0.546-0.157-0.979-0.389-1.295-0.692
			c-0.317-0.303-0.534-0.673-0.649-1.115c-0.115-0.441-0.172-0.941-0.172-1.498c-0.001-4.604-0.002-6.905-0.003-11.51
			c1.206-0.221,1.808-0.333,3.013-0.558c0.002,4.557,0.003,6.835,0.005,11.392c0,0.266,0.02,0.503,0.06,0.714
			s0.119,0.386,0.233,0.529c0.115,0.142,0.279,0.257,0.495,0.344c0.215,0.086,0.507,0.137,0.871,0.153
			C163.931,202.093,163.846,202.585,163.677,203.569z"/>
		<path fill="#FFFFFF" d="M165.312,198.169c0-0.928,0.145-1.745,0.435-2.45c0.29-0.706,0.669-1.298,1.141-1.778
			s1.015-0.851,1.628-1.112c0.614-0.261,1.243-0.403,1.89-0.428c1.51-0.059,2.703,0.344,3.58,1.214
			c0.876,0.87,1.315,2.185,1.316,3.948c0,0.172-0.006,0.36-0.02,0.566c-0.013,0.207-0.027,0.39-0.04,0.549
			c-2.734,0.124-4.1,0.179-6.834,0.278c0.067,0.607,0.357,1.081,0.87,1.42c0.513,0.338,1.199,0.491,2.063,0.456
			c0.553-0.022,1.095-0.094,1.628-0.216c0.532-0.122,0.968-0.265,1.305-0.425c0.163,0.955,0.242,1.433,0.405,2.388
			c-0.162,0.087-0.377,0.177-0.647,0.268c-0.27,0.091-0.569,0.174-0.899,0.248s-0.684,0.138-1.061,0.193
			c-0.377,0.055-0.755,0.089-1.133,0.104c-0.958,0.038-1.79-0.068-2.497-0.321c-0.708-0.252-1.295-0.614-1.761-1.082
			c-0.465-0.467-0.811-1.029-1.034-1.685C165.423,199.65,165.312,198.938,165.312,198.169z M172.391,196.772
			c-0.014-0.251-0.057-0.493-0.131-0.729c-0.074-0.235-0.191-0.441-0.346-0.621c-0.156-0.179-0.35-0.324-0.585-0.434
			c-0.236-0.109-0.529-0.158-0.88-0.144c-0.337,0.013-0.626,0.08-0.869,0.201c-0.243,0.122-0.446,0.28-0.608,0.471
			c-0.162,0.192-0.285,0.41-0.373,0.659c-0.088,0.249-0.152,0.5-0.192,0.753C170,196.871,170.797,196.838,172.391,196.772z"/>
		<path fill="#FFFFFF" d="M182.685,202.562c-0.004-5.511-0.006-8.267-0.01-13.778c3.75-0.205,5.625-0.319,9.374-0.569
			c0.001,1.042,0,1.562,0.001,2.603c-2.488,0.167-3.732,0.244-6.222,0.39c0.001,1.153,0.002,1.731,0.003,2.885
			c2.215-0.13,3.322-0.2,5.536-0.346c0.001,1.042,0.002,1.562,0.003,2.604c-2.214,0.146-3.321,0.216-5.536,0.346
			c0.002,2.274,0.002,3.411,0.004,5.685C184.577,202.456,183.946,202.493,182.685,202.562z"/>
		<path fill="#FFFFFF" d="M197.36,188.138c0,0.543-0.178,0.985-0.534,1.322c-0.356,0.338-0.777,0.522-1.262,0.557
			s-0.907-0.091-1.264-0.377c-0.357-0.286-0.535-0.702-0.536-1.246c0-0.543,0.177-0.982,0.534-1.319
			c0.356-0.336,0.778-0.521,1.263-0.556s0.904,0.091,1.262,0.376C197.18,187.182,197.36,187.595,197.36,188.138z M197.089,201.638
			c-1.204,0.088-1.805,0.131-3.009,0.214c-0.004-4.183-0.006-6.274-0.01-10.457c1.204-0.083,1.807-0.125,3.01-0.214
			C197.084,195.364,197.085,197.456,197.089,201.638z"/>
		<path fill="#FFFFFF" d="M204.157,201.286c-0.875,0.059-1.585,0.024-2.13-0.105c-0.545-0.128-0.978-0.337-1.294-0.625
			c-0.317-0.287-0.534-0.646-0.648-1.082c-0.115-0.435-0.172-0.932-0.172-1.488c-0.005-4.604-0.007-6.905-0.012-11.51
			c1.203-0.283,1.805-0.428,3.008-0.716c0.005,4.557,0.008,6.835,0.013,11.392c0,0.266,0.021,0.501,0.062,0.71
			s0.118,0.381,0.232,0.518c0.114,0.136,0.279,0.243,0.495,0.318c0.215,0.075,0.505,0.112,0.868,0.108
			C204.409,199.799,204.326,200.294,204.157,201.286z"/>
		<path fill="#FFFFFF" d="M205.785,195.801c-0.001-0.927,0.141-1.751,0.43-2.472c0.289-0.721,0.669-1.333,1.139-1.837
			s1.01-0.903,1.622-1.196c0.612-0.293,1.24-0.468,1.886-0.527c1.506-0.137,2.696,0.203,3.571,1.027
			c0.875,0.824,1.314,2.117,1.316,3.879c0,0.172-0.007,0.362-0.02,0.568c-0.013,0.207-0.027,0.39-0.04,0.55
			c-2.726,0.266-4.09,0.393-6.817,0.635c0.068,0.604,0.356,1.063,0.868,1.375c0.512,0.312,1.199,0.429,2.06,0.349
			c0.552-0.051,1.093-0.152,1.624-0.302c0.531-0.149,0.964-0.314,1.3-0.492c0.163,0.947,0.243,1.42,0.406,2.367
			c-0.162,0.095-0.375,0.195-0.644,0.301c-0.269,0.105-0.568,0.205-0.897,0.295s-0.683,0.173-1.059,0.248
			c-0.376,0.075-0.753,0.129-1.13,0.164c-0.955,0.088-1.786,0.024-2.492-0.191c-0.707-0.215-1.292-0.546-1.757-0.99
			c-0.465-0.443-0.808-0.987-1.031-1.631C205.897,197.277,205.786,196.57,205.785,195.801z M212.846,194.04
			c-0.014-0.25-0.058-0.492-0.132-0.724c-0.074-0.231-0.19-0.433-0.345-0.604c-0.155-0.171-0.352-0.305-0.587-0.402
			c-0.235-0.097-0.527-0.131-0.877-0.099c-0.336,0.031-0.625,0.113-0.867,0.247c-0.242,0.134-0.442,0.302-0.604,0.502
			c-0.161,0.2-0.285,0.426-0.372,0.679c-0.087,0.253-0.151,0.508-0.191,0.763C210.461,194.261,211.256,194.188,212.846,194.04z"/>
		<path fill="#FFFFFF" d="M221.117,197.375c0.551-0.058,0.939-0.153,1.167-0.283c0.228-0.13,0.343-0.348,0.342-0.652
			c0-0.239-0.149-0.432-0.445-0.58c-0.296-0.148-0.746-0.305-1.35-0.465c-0.468-0.124-0.898-0.257-1.281-0.403
			c-0.383-0.146-0.709-0.336-0.978-0.568c-0.269-0.231-0.479-0.518-0.627-0.86c-0.148-0.343-0.222-0.767-0.223-1.271
			c-0.001-0.98,0.367-1.793,1.105-2.438c0.738-0.645,1.753-1.032,3.042-1.168c0.645-0.068,1.26-0.079,1.852-0.03
			c0.591,0.049,1.062,0.119,1.411,0.213c-0.208,0.945-0.312,1.418-0.52,2.364c-0.35-0.082-0.729-0.146-1.139-0.195
			s-0.869-0.045-1.379,0.009c-0.94,0.1-1.41,0.406-1.409,0.923c0,0.119,0.02,0.224,0.061,0.312s0.122,0.169,0.242,0.243
			c0.121,0.073,0.285,0.149,0.494,0.228c0.208,0.078,0.475,0.162,0.797,0.247c0.655,0.172,1.202,0.35,1.632,0.537
			c0.43,0.188,0.769,0.401,1.019,0.645c0.249,0.244,0.423,0.525,0.525,0.845s0.152,0.698,0.153,1.135
			c0.001,1.031-0.39,1.855-1.175,2.47c-0.785,0.614-1.896,0.998-3.334,1.148c-0.94,0.098-1.723,0.1-2.348,0.004
			s-1.061-0.184-1.303-0.266c0.2-0.982,0.302-1.473,0.502-2.456c0.511,0.147,1.036,0.249,1.573,0.307
			S220.593,197.43,221.117,197.375z"/>
	</g>
</g>
<text transform="matrix(1 0 0 1 43.7388 25.667)" fill="#5A9A00" font-family="'Ubuntu-Bold'" font-size="20">Reads</text>
<text transform="matrix(1 0 0 1 171.2822 25.334)" fill="#5A9A00" font-family="'Ubuntu-Bold'" font-size="20">Writes</text>
<g>
	<g>
		
			<line fill="none" stroke="#5A9A00" stroke-width="4" stroke-linecap="round" stroke-miterlimit="5" x1="72.668" y1="76.333" x2="72.668" y2="34"/>
		<polygon fill="#5A9A00" points="80.797,38.066 78.377,40.488 72.668,34.779 66.961,40.488 64.54,38.066 72.668,29.938 		"/>
	</g>
</g>
<g>
	<g>
		
			<line fill="none" stroke="#5A9A00" stroke-width="4" stroke-linecap="round" stroke-miterlimit="5" x1="203.002" y1="34" x2="203.002" y2="76.333"/>
		<polygon fill="#5A9A00" points="194.873,72.267 197.293,69.845 203.002,75.554 208.709,69.845 211.131,72.267 203.002,80.396 		
			"/>
	</g>
</g>
<g id="XMLID_6_">
	<g>
		<path fill="#5A9A00" d="M139.987,97.2v25.94c-63.54,0-115.04-7.74-115.04-17.29V79.91C24.947,89.46,76.447,97.2,139.987,97.2z"/>
	</g>
	<g>
		<path fill="none" stroke="#5A9A00" stroke-width="0.5" stroke-linecap="round" stroke-linejoin="round" d="M24.947,79.91
			c0,9.55,51.5,17.29,115.04,17.29"/>
		<path fill="none" stroke="#5A9A00" stroke-width="0.5" stroke-linecap="round" stroke-linejoin="round" d="M24.947,105.85
			c0,9.55,51.5,17.29,115.04,17.29"/>
		
			<line fill="none" stroke="#5A9A00" stroke-width="0.5" stroke-linecap="round" stroke-linejoin="round" x1="24.947" y1="79.91" x2="24.947" y2="105.85"/>
		
			<line fill="none" stroke="#5A9A00" stroke-width="0.5" stroke-linecap="round" stroke-linejoin="round" x1="139.987" y1="123.14" x2="139.987" y2="97.2"/>
	</g>
</g>
<g>
	<g>
		<path fill="#FFFFFF" d="M51.275,110.347c-2.297-0.405-3.951-1.353-4.955-2.817c-1.004-1.464-1.318-3.336-0.957-5.609
			c0.18-1.13,0.521-2.103,1.022-2.92c0.501-0.817,1.111-1.469,1.833-1.961c0.721-0.492,1.538-0.817,2.45-0.974
			c0.913-0.156,1.874-0.146,2.886,0.031c0.585,0.103,1.111,0.239,1.578,0.407s0.872,0.336,1.216,0.508s0.628,0.338,0.852,0.497
			c0.224,0.158,0.384,0.278,0.481,0.361c-0.501,0.938-0.754,1.407-1.258,2.343c-0.397-0.295-0.866-0.569-1.412-0.824
			c-0.546-0.254-1.181-0.445-1.902-0.572c-0.481-0.084-0.963-0.089-1.447-0.015c-0.484,0.075-0.931,0.254-1.337,0.537
			c-0.407,0.284-0.761,0.681-1.06,1.194c-0.299,0.513-0.509,1.164-0.631,1.953c-0.097,0.631-0.119,1.233-0.061,1.806
			c0.057,0.572,0.215,1.083,0.472,1.537c0.257,0.453,0.623,0.841,1.103,1.164c0.479,0.323,1.086,0.551,1.817,0.68
			c0.46,0.081,0.876,0.126,1.25,0.136c0.373,0.01,0.708,0.002,1.003-0.022c0.295-0.024,0.558-0.064,0.788-0.12
			c0.229-0.056,0.439-0.108,0.627-0.158c0.208,1.046,0.313,1.567,0.524,2.613c-0.486,0.19-1.153,0.325-1.999,0.398
			C53.311,110.593,52.349,110.536,51.275,110.347z"/>
		<path fill="#FFFFFF" d="M63.373,101.096c0.886,0.129,1.612,0.331,2.179,0.612s1.004,0.631,1.315,1.049
			c0.31,0.418,0.507,0.901,0.589,1.45c0.082,0.548,0.083,1.145,0.001,1.792c-0.308,2.457-0.46,3.687-0.768,6.144
			c-0.449,0.034-1.07,0.062-1.865,0.08c-0.794,0.019-1.747-0.05-2.853-0.212c-0.696-0.102-1.318-0.256-1.868-0.46
			c-0.55-0.205-1.012-0.474-1.384-0.808s-0.638-0.737-0.794-1.206c-0.157-0.469-0.19-1.021-0.102-1.653
			c0.084-0.606,0.282-1.101,0.59-1.483s0.689-0.666,1.143-0.852c0.453-0.186,0.958-0.294,1.514-0.325
			c0.555-0.03,1.122-0.002,1.704,0.083c0.392,0.057,0.739,0.125,1.039,0.201c0.3,0.077,0.54,0.153,0.723,0.233
			c0.014-0.111,0.022-0.167,0.037-0.277c0.065-0.501-0.038-0.925-0.309-1.273s-0.791-0.578-1.559-0.691
			c-0.512-0.075-1.023-0.115-1.531-0.118s-0.953,0.034-1.334,0.109c-0.023-0.973-0.034-1.46-0.057-2.433
			c0.181-0.025,0.407-0.049,0.677-0.068c0.27-0.019,0.562-0.027,0.877-0.026c0.314,0,0.646,0.01,0.993,0.028
			C62.676,101.01,63.023,101.045,63.373,101.096z M62.477,109.762c0.299,0.043,0.588,0.078,0.862,0.104
			c0.274,0.026,0.493,0.038,0.659,0.034c0.116-0.895,0.173-1.344,0.29-2.239c-0.119-0.044-0.297-0.096-0.538-0.157
			c-0.241-0.061-0.463-0.106-0.667-0.136c-0.285-0.041-0.555-0.063-0.81-0.067c-0.256-0.003-0.485,0.026-0.688,0.09
			c-0.202,0.064-0.367,0.167-0.497,0.309s-0.21,0.333-0.243,0.57c-0.062,0.462,0.054,0.805,0.35,1.03
			C61.493,109.526,61.918,109.681,62.477,109.762z"/>
		<path fill="#FFFFFF" d="M69.544,107.519c0.092-0.753,0.303-1.448,0.635-2.085c0.331-0.636,0.763-1.171,1.295-1.609
			s1.151-0.762,1.86-0.974c0.708-0.212,1.493-0.268,2.356-0.172c0.566,0.063,1.081,0.169,1.542,0.319s0.904,0.339,1.331,0.57
			c-0.354,0.919-0.532,1.378-0.888,2.296c-0.273-0.136-0.574-0.26-0.903-0.376c-0.33-0.116-0.706-0.197-1.125-0.243
			c-0.894-0.099-1.592,0.096-2.095,0.587s-0.808,1.179-0.911,2.065c-0.11,0.939,0.013,1.691,0.369,2.255s1.053,0.906,2.092,1.021
			c0.369,0.041,0.769,0.05,1.2,0.029s0.833-0.085,1.204-0.194c0.066,0.987,0.1,1.481,0.167,2.468
			c-0.373,0.109-0.832,0.189-1.379,0.239c-0.547,0.049-1.143,0.036-1.787-0.035c-0.987-0.109-1.82-0.35-2.499-0.718
			s-1.217-0.827-1.617-1.372s-0.664-1.165-0.793-1.859C69.466,109.037,69.449,108.299,69.544,107.519z"/>
		<path fill="#FFFFFF" d="M79.702,113.938c0.63-5.974,0.945-8.96,1.576-14.935c1.22-0.075,1.83-0.115,3.05-0.2
			c-0.202,2.003-0.303,3.005-0.505,5.008c0.21-0.048,0.477-0.089,0.8-0.121c0.323-0.032,0.634-0.036,0.932-0.011
			c0.866,0.072,1.576,0.246,2.129,0.521c0.553,0.276,0.982,0.64,1.289,1.09c0.307,0.45,0.505,0.97,0.595,1.563
			c0.089,0.594,0.101,1.248,0.035,1.964c-0.216,2.362-0.325,3.543-0.541,5.905c-1.23-0.087-1.844-0.133-3.074-0.231
			c0.213-2.218,0.32-3.328,0.534-5.546c0.092-0.954,0.031-1.641-0.182-2.059s-0.659-0.653-1.338-0.71
			c-0.271-0.023-0.531-0.021-0.773,0.004s-0.459,0.057-0.655,0.093c-0.321,3.179-0.482,4.768-0.803,7.947
			C81.542,114.114,80.929,114.056,79.702,113.938z"/>
		<path fill="#FFFFFF" d="M91.787,109.726c0.082-0.928,0.3-1.731,0.654-2.408c0.354-0.678,0.788-1.234,1.303-1.67
			s1.09-0.754,1.728-0.958c0.637-0.205,1.281-0.29,1.933-0.257c1.519,0.077,2.684,0.583,3.5,1.527
			c0.816,0.945,1.161,2.297,1.032,4.062c-0.013,0.172-0.033,0.361-0.062,0.566c-0.029,0.206-0.056,0.387-0.081,0.546
			c-2.78-0.103-4.168-0.167-6.945-0.322c0.017,0.614,0.272,1.115,0.764,1.501c0.492,0.386,1.178,0.601,2.058,0.643
			c0.563,0.027,1.12,0.003,1.67-0.073c0.55-0.076,1.002-0.18,1.356-0.312c0.093,0.97,0.14,1.455,0.234,2.424
			c-0.171,0.073-0.399,0.144-0.681,0.212c-0.282,0.068-0.594,0.124-0.936,0.169s-0.708,0.081-1.097,0.103
			c-0.389,0.021-0.778,0.022-1.164,0.003c-0.979-0.048-1.818-0.231-2.518-0.55c-0.7-0.319-1.267-0.737-1.7-1.25
			c-0.433-0.513-0.731-1.107-0.899-1.785C91.77,111.219,91.719,110.495,91.787,109.726z M99.053,108.985
			c0.006-0.253-0.02-0.5-0.076-0.742c-0.057-0.242-0.157-0.459-0.298-0.653c-0.143-0.193-0.328-0.354-0.557-0.485
			c-0.229-0.13-0.52-0.205-0.874-0.223c-0.34-0.017-0.638,0.025-0.892,0.125c-0.254,0.1-0.471,0.237-0.65,0.414
			c-0.179,0.177-0.323,0.386-0.432,0.626c-0.109,0.24-0.195,0.484-0.257,0.734C96.631,108.871,97.438,108.913,99.053,108.985z"/>
	</g>
</g>
</svg>
