<?xml version="1.0" encoding="utf-8"?>
<!-- Generator: Adobe Illustrator 14.0.0, SVG Export Plug-In . SVG Version: 6.00 Build 43363)  -->
<!DOCTYPE svg PUBLIC "-//W3C//DTD SVG 1.1//EN" "http://www.w3.org/Graphics/SVG/1.1/DTD/svg11.dtd">
<svg version="1.1" id="Layer_1" xmlns="http://www.w3.org/2000/svg" xmlns:xlink="http://www.w3.org/1999/xlink" x="0px" y="0px"
	 width="339.335px" height="244px" viewBox="0 0 339.335 244" enable-background="new 0 0 339.335 244" xml:space="preserve">
<rect fill="#FFFFFF" width="339.335" height="244"/>
<g>
	<path fill="#FFFFFF" stroke="#5A9A00" stroke-width="7" d="M324.458,212.851c0,10.184-54.933,18.439-122.695,18.439
		c-67.762,0-122.695-8.256-122.695-18.439"/>
	<path fill="#FFFFFF" stroke="#5A9A00" stroke-width="7" d="M324.458,76.681v136.17 M79.067,212.851V76.681 M324.458,76.681
		c0-10.184-54.933-18.44-122.695-18.44c-67.762,0-122.695,8.256-122.695,18.44"/>
</g>
<path fill="none" stroke="#000000" stroke-width="0.5" stroke-linecap="round" stroke-linejoin="round" d="M201.718,132.965"/>
<path fill="none" stroke="#000000" stroke-width="0.5" stroke-linecap="round" stroke-linejoin="round" d="M316.771,115.674"/>
<path fill="none" stroke="#000000" stroke-width="0.5" stroke-linecap="round" stroke-linejoin="round" d="M86.673,115.674"/>
<path fill="none" stroke="#000000" stroke-width="0.5" stroke-linecap="round" stroke-linejoin="round" d="M201.718,132.965"/>
<path fill="none" stroke="#000000" stroke-width="0.5" stroke-linecap="round" stroke-linejoin="round" d="M201.718,158.901"/>
<path fill="none" stroke="#000000" stroke-width="0.5" stroke-linecap="round" stroke-linejoin="round" d="M201.718,158.901"/>
<g id="XMLID_2_">
	<g>
		<path fill="#5A9A00" d="M316.7,87.885v4.94c0,9.54-51.52,17.29-115.06,17.29c-63.53,0-115.04-7.75-115.04-17.29v-4.94
			c0,9.55,51.51,17.29,115.04,17.29C265.18,105.175,316.7,97.436,316.7,87.885z"/>
	</g>
	<g>
		<path fill="none" stroke="#5A9A00" d="M201.64,105.175c63.54,0,115.06-7.74,115.06-17.29"/>
		<path fill="none" stroke="#5A9A00" d="M86.6,87.885c0,9.55,51.51,17.29,115.04,17.29"/>
		<path fill="none" stroke="#5A9A00" d="M201.64,110.115c63.54,0,115.06-7.75,115.06-17.29"/>
		<path fill="none" stroke="#5A9A00" d="M86.6,92.825c0,9.54,51.51,17.29,115.04,17.29"/>
		<line fill="none" stroke="#5A9A00" x1="86.6" y1="87.885" x2="86.6" y2="92.825"/>
		<line fill="none" stroke="#5A9A00" x1="316.7" y1="87.885" x2="316.7" y2="92.825"/>
	</g>
</g>
<g id="XMLID_1_">
	<g>
		<path fill="#5A9A00" d="M86.713,204.504v-25.937c0,9.546,51.507,17.291,115.044,17.291s115.054-7.745,115.054-17.291v25.937
			c0,9.545-51.516,17.291-115.054,17.291S86.713,214.049,86.713,204.504z"/>
	</g>
	<g>
		<path fill="none" stroke="#5A9A00" d="M201.758,195.858c63.538,0,115.054-7.745,115.054-17.291"/>
		<path fill="none" stroke="#5A9A00" d="M86.713,178.567c0,9.546,51.507,17.291,115.044,17.291"/>
		<path fill="none" stroke="#5A9A00" d="M201.758,221.795c63.538,0,115.054-7.746,115.054-17.291"/>
		<path fill="none" stroke="#5A9A00" d="M86.713,204.504c0,9.545,51.507,17.291,115.044,17.291"/>
		<line fill="none" stroke="#5A9A00" x1="86.713" y1="178.567" x2="86.713" y2="204.504"/>
		<line fill="none" stroke="#5A9A00" x1="316.812" y1="178.567" x2="316.812" y2="204.504"/>
	</g>
</g>
<g id="XMLID_3_">
	<g>
		<path fill="#5A9A00" d="M316.704,152.37v25.937c0,9.545-51.516,17.291-115.054,17.291c-63.537,0-115.044-7.745-115.044-17.291
			V152.37c0,9.546,51.507,17.291,115.044,17.291C265.188,169.661,316.704,161.916,316.704,152.37z"/>
	</g>
	<g>
		<path fill="none" stroke="#5A9A00" d="M201.65,169.661c63.538,0,115.054-7.745,115.054-17.291"/>
		<path fill="none" stroke="#5A9A00" d="M86.606,152.37c0,9.546,51.507,17.291,115.044,17.291"/>
		<path fill="none" stroke="#5A9A00" d="M201.65,195.597c63.538,0,115.054-7.745,115.054-17.291"/>
		<path fill="none" stroke="#5A9A00" d="M86.606,178.306c0,9.545,51.507,17.291,115.044,17.291"/>
		<line fill="none" stroke="#5A9A00" x1="86.606" y1="152.37" x2="86.606" y2="178.306"/>
		<line fill="none" stroke="#5A9A00" x1="316.704" y1="152.37" x2="316.704" y2="178.306"/>
	</g>
</g>
<text transform="matrix(1 0 0 1 105.4072 25.667)" fill="#5A9A00" font-family="'Ubuntu-Bold'" font-size="20">Reads</text>
<text transform="matrix(1 0 0 1 232.9507 25.334)" fill="#5A9A00" font-family="'Ubuntu-Bold'" font-size="20">Writes</text>
<g>
	<g>
		
			<line fill="none" stroke="#5A9A00" stroke-width="4" stroke-linecap="round" stroke-miterlimit="5" x1="134.337" y1="76.333" x2="134.337" y2="34"/>
		<polygon fill="#5A9A00" points="142.466,38.066 140.046,40.488 134.337,34.779 128.63,40.488 126.208,38.066 134.337,29.938 		"/>
	</g>
</g>
<g>
	<g>
		
			<line fill="none" stroke="#5A9A00" stroke-width="4" stroke-linecap="round" stroke-miterlimit="5" x1="264.67" y1="31.667" x2="264.67" y2="76.333"/>
		<polygon fill="#5A9A00" points="256.542,72.267 258.961,69.845 264.67,75.554 270.377,69.845 272.799,72.267 264.67,80.396 		"/>
	</g>
</g>
<path fill="none" stroke="#000000" stroke-width="0.5" stroke-linecap="round" stroke-linejoin="round" d="M86.613,79.914"/>
<g id="XMLID_4_">
	<g>
		<path fill="#5A9A00" d="M86.613,84.854v-4.94c0,9.55,51.5,17.29,115.04,17.29v4.94C138.113,102.144,86.613,94.403,86.613,84.854z"
			/>
	</g>
	<g>
		<path fill="none" stroke="#5A9A00" stroke-width="0.5" stroke-linecap="round" stroke-linejoin="round" d="M86.613,79.914
			c0,9.55,51.5,17.29,115.04,17.29"/>
		<path fill="none" stroke="#5A9A00" stroke-width="0.5" stroke-linecap="round" stroke-linejoin="round" d="M86.613,84.854
			c0,9.55,51.5,17.29,115.04,17.29"/>
		
			<line fill="none" stroke="#5A9A00" stroke-width="0.5" stroke-linecap="round" stroke-linejoin="round" x1="86.613" y1="79.914" x2="86.613" y2="84.854"/>
		<polyline fill="none" stroke="#5A9A00" stroke-width="0.5" stroke-linecap="round" stroke-linejoin="round" points="
			201.653,102.144 201.653,97.204 201.653,96.733 		"/>
	</g>
</g>
<g id="XMLID_5_">
	<g>
		<path fill="#5A9A00" d="M86.712,96.708c0,9.55,51.51,17.29,115.04,17.29c63.54,0,115.06-7.74,115.06-17.29v4.94
			c0,9.54-51.52,17.29-115.06,17.29c-63.53,0-115.04-7.75-115.04-17.29V96.708z"/>
	</g>
	<g>
		<path fill="none" stroke="#5A9A00" d="M201.752,113.998c63.54,0,115.06-7.74,115.06-17.29"/>
		<path fill="none" stroke="#5A9A00" d="M86.712,96.708c0,9.55,51.51,17.29,115.04,17.29"/>
		<path fill="none" stroke="#5A9A00" d="M201.752,118.938c63.54,0,115.06-7.75,115.06-17.29"/>
		<path fill="none" stroke="#5A9A00" d="M86.712,101.647c0,9.54,51.51,17.29,115.04,17.29"/>
		<line fill="none" stroke="#5A9A00" x1="86.712" y1="96.708" x2="86.712" y2="101.647"/>
		<line fill="none" stroke="#5A9A00" x1="316.812" y1="96.708" x2="316.812" y2="101.647"/>
	</g>
</g>
<g id="XMLID_6_">
	<g>
		<path fill="#5A9A00" d="M86.236,105.885c0,9.55,51.51,17.29,115.04,17.29c63.54,0,115.06-7.74,115.06-17.29v4.94
			c0,9.54-51.52,17.29-115.06,17.29c-63.53,0-115.04-7.75-115.04-17.29V105.885z"/>
	</g>
	<g>
		<path fill="none" stroke="#5A9A00" d="M201.276,123.175c63.54,0,115.06-7.74,115.06-17.29"/>
		<path fill="none" stroke="#5A9A00" d="M86.236,105.885c0,9.55,51.51,17.29,115.04,17.29"/>
		<path fill="none" stroke="#5A9A00" d="M201.276,128.115c63.54,0,115.06-7.75,115.06-17.29"/>
		<path fill="none" stroke="#5A9A00" d="M86.236,110.825c0,9.54,51.51,17.29,115.04,17.29"/>
		<line fill="none" stroke="#5A9A00" x1="86.236" y1="105.885" x2="86.236" y2="110.825"/>
		<line fill="none" stroke="#5A9A00" x1="316.336" y1="105.885" x2="316.336" y2="110.825"/>
	</g>
</g>
<g id="XMLID_7_">
	<g>
		<path fill="#5A9A00" d="M86.236,115.825v-4.94c0,9.55,51.51,17.29,115.04,17.29c63.54,0,115.06-7.74,115.06-17.29v4.94
			c0,9.54-51.52,17.29-115.06,17.29C137.746,133.115,86.236,125.365,86.236,115.825z"/>
	</g>
	<g>
		<path fill="none" stroke="#5A9A00" d="M201.276,128.175c63.54,0,115.06-7.74,115.06-17.29"/>
		<path fill="none" stroke="#5A9A00" d="M86.236,110.885c0,9.55,51.51,17.29,115.04,17.29"/>
		<path fill="none" stroke="#5A9A00" d="M201.276,133.115c63.54,0,115.06-7.75,115.06-17.29"/>
		<path fill="none" stroke="#5A9A00" d="M86.236,115.825c0,9.54,51.51,17.29,115.04,17.29"/>
		<line fill="none" stroke="#5A9A00" x1="86.236" y1="110.885" x2="86.236" y2="115.825"/>
		<line fill="none" stroke="#5A9A00" x1="316.336" y1="110.885" x2="316.336" y2="115.825"/>
	</g>
</g>
<g id="XMLID_8_">
	<g>
		<path fill="#5A9A00" d="M86.236,124.825v-4.94c0,9.55,51.51,17.29,115.04,17.29c63.54,0,115.06-7.74,115.06-17.29v4.94
			c0,9.54-51.52,17.29-115.06,17.29C137.746,142.115,86.236,134.365,86.236,124.825z"/>
	</g>
	<g>
		<path fill="none" stroke="#5A9A00" d="M201.276,137.175c63.54,0,115.06-7.74,115.06-17.29"/>
		<path fill="none" stroke="#5A9A00" d="M86.236,119.885c0,9.55,51.51,17.29,115.04,17.29"/>
		<path fill="none" stroke="#5A9A00" d="M201.276,142.115c63.54,0,115.06-7.75,115.06-17.29"/>
		<path fill="none" stroke="#5A9A00" d="M86.236,124.825c0,9.54,51.51,17.29,115.04,17.29"/>
		<line fill="none" stroke="#5A9A00" x1="86.236" y1="119.885" x2="86.236" y2="124.825"/>
		<line fill="none" stroke="#5A9A00" x1="316.336" y1="119.885" x2="316.336" y2="124.825"/>
	</g>
</g>
<g id="XMLID_9_">
	<g>
		<path fill="#5A9A00" d="M86.236,124.885c0,9.55,51.51,17.29,115.04,17.29c63.54,0,115.06-7.74,115.06-17.29v4.94
			c0,9.54-51.52,17.29-115.06,17.29c-63.53,0-115.04-7.75-115.04-17.29V124.885z"/>
	</g>
	<g>
		<path fill="none" stroke="#5A9A00" d="M201.276,142.175c63.54,0,115.06-7.74,115.06-17.29"/>
		<path fill="none" stroke="#5A9A00" d="M86.236,124.885c0,9.55,51.51,17.29,115.04,17.29"/>
		<path fill="none" stroke="#5A9A00" d="M201.276,147.115c63.54,0,115.06-7.75,115.06-17.29"/>
		<path fill="none" stroke="#5A9A00" d="M86.236,129.825c0,9.54,51.51,17.29,115.04,17.29"/>
		<line fill="none" stroke="#5A9A00" x1="86.236" y1="124.885" x2="86.236" y2="129.825"/>
		<line fill="none" stroke="#5A9A00" x1="316.336" y1="124.885" x2="316.336" y2="129.825"/>
	</g>
</g>
<g id="XMLID_10_">
	<g>
		<path fill="#5A9A00" d="M86.236,134.825v-4.94c0,9.55,51.51,17.29,115.04,17.29c63.54,0,115.06-7.74,115.06-17.29v4.94
			c0,9.54-51.52,17.29-115.06,17.29C137.746,152.115,86.236,144.365,86.236,134.825z"/>
	</g>
	<g>
		<path fill="none" stroke="#5A9A00" d="M201.276,147.175c63.54,0,115.06-7.74,115.06-17.29"/>
		<path fill="none" stroke="#5A9A00" d="M86.236,129.885c0,9.55,51.51,17.29,115.04,17.29"/>
		<path fill="none" stroke="#5A9A00" d="M201.276,152.115c63.54,0,115.06-7.75,115.06-17.29"/>
		<path fill="none" stroke="#5A9A00" d="M86.236,134.825c0,9.54,51.51,17.29,115.04,17.29"/>
		<line fill="none" stroke="#5A9A00" x1="86.236" y1="129.885" x2="86.236" y2="134.825"/>
		<line fill="none" stroke="#5A9A00" x1="316.336" y1="129.885" x2="316.336" y2="134.825"/>
	</g>
</g>
<g id="XMLID_11_">
	<g>
		<path fill="#5A9A00" d="M86.236,139.825v-4.94c0,9.55,51.51,17.29,115.04,17.29c63.54,0,115.06-7.74,115.06-17.29v4.94
			c0,9.54-51.52,17.29-115.06,17.29C137.746,157.115,86.236,149.365,86.236,139.825z"/>
	</g>
	<g>
		<path fill="none" stroke="#5A9A00" d="M201.276,152.175c63.54,0,115.06-7.74,115.06-17.29"/>
		<path fill="none" stroke="#5A9A00" d="M86.236,134.885c0,9.55,51.51,17.29,115.04,17.29"/>
		<path fill="none" stroke="#5A9A00" d="M201.276,157.115c63.54,0,115.06-7.75,115.06-17.29"/>
		<path fill="none" stroke="#5A9A00" d="M86.236,139.825c0,9.54,51.51,17.29,115.04,17.29"/>
		<line fill="none" stroke="#5A9A00" x1="86.236" y1="134.885" x2="86.236" y2="139.825"/>
		<line fill="none" stroke="#5A9A00" x1="316.336" y1="134.885" x2="316.336" y2="139.825"/>
	</g>
</g>
<g id="XMLID_12_">
	<g>
		<path fill="#5A9A00" d="M86.236,139.885c0,9.55,51.51,17.29,115.04,17.29c63.54,0,115.06-7.74,115.06-17.29v4.94
			c0,9.54-51.52,17.29-115.06,17.29c-63.53,0-115.04-7.75-115.04-17.29V139.885z"/>
	</g>
	<g>
		<path fill="none" stroke="#5A9A00" d="M201.276,157.175c63.54,0,115.06-7.74,115.06-17.29"/>
		<path fill="none" stroke="#5A9A00" d="M86.236,139.885c0,9.55,51.51,17.29,115.04,17.29"/>
		<path fill="none" stroke="#5A9A00" d="M201.276,162.115c63.54,0,115.06-7.75,115.06-17.29"/>
		<path fill="none" stroke="#5A9A00" d="M86.236,144.825c0,9.54,51.51,17.29,115.04,17.29"/>
		<line fill="none" stroke="#5A9A00" x1="86.236" y1="139.885" x2="86.236" y2="144.825"/>
		<line fill="none" stroke="#5A9A00" x1="316.336" y1="139.885" x2="316.336" y2="144.825"/>
	</g>
</g>
<g id="XMLID_13_">
	<g>
		<path fill="#5A9A00" d="M86.236,142.885c0,9.55,51.51,17.29,115.04,17.29c63.54,0,115.06-7.74,115.06-17.29v4.94
			c0,9.54-51.52,17.29-115.06,17.29c-63.53,0-115.04-7.75-115.04-17.29V142.885z"/>
	</g>
	<g>
		<path fill="none" stroke="#5A9A00" d="M201.276,160.175c63.54,0,115.06-7.74,115.06-17.29"/>
		<path fill="none" stroke="#5A9A00" d="M86.236,142.885c0,9.55,51.51,17.29,115.04,17.29"/>
		<path fill="none" stroke="#5A9A00" d="M201.276,165.115c63.54,0,115.06-7.75,115.06-17.29"/>
		<path fill="none" stroke="#5A9A00" d="M86.236,147.825c0,9.54,51.51,17.29,115.04,17.29"/>
		<line fill="none" stroke="#5A9A00" x1="86.236" y1="142.885" x2="86.236" y2="147.825"/>
		<line fill="none" stroke="#5A9A00" x1="316.336" y1="142.885" x2="316.336" y2="147.825"/>
	</g>
</g>
<text transform="matrix(1 0 0 1 14.3154 87.396)" fill="#5A9A00" font-family="'Ubuntu'" font-size="10">Cache</text>
<text transform="matrix(1 0 0 1 19.5654 96.7075)" fill="#5A9A00" font-family="'Ubuntu'" font-size="10">Log</text>
<text transform="matrix(1 0 0 1 11.9658 105.7798)" fill="#5A9A00" font-family="'Ubuntu'" font-size="10">Level 0</text>
<text transform="matrix(1 0 0 1 11.9658 114.9976)" fill="#5A9A00" font-family="'Ubuntu'" font-size="10">Level 1</text>
<text transform="matrix(1 0 0 1 11.9658 134.8223)" fill="#5A9A00" font-family="'Ubuntu'" font-size="10">Level 2</text>
<text transform="matrix(1 0 0 1 9.6328 183.5923)" fill="#5A9A00" font-family="'Ubuntu'" font-size="10">Level 3</text>
<g>
	<g>
		
			<line fill="none" stroke="#5A9A00" stroke-linecap="round" stroke-miterlimit="5" x1="47.5" y1="84.851" x2="72.667" y2="84.851"/>
		<polygon fill="#5A9A00" points="71.65,86.883 71.045,86.278 72.472,84.851 71.045,83.424 71.65,82.818 73.683,84.851 		"/>
	</g>
</g>
<g>
	<g>
		
			<line fill="none" stroke="#5A9A00" stroke-linecap="round" stroke-miterlimit="5" x1="47.5" y1="93.499" x2="72.667" y2="93.499"/>
		<polygon fill="#5A9A00" points="71.65,95.531 71.045,94.926 72.472,93.499 71.045,92.072 71.65,91.466 73.683,93.499 		"/>
	</g>
</g>
<g>
	<g>
		
			<line fill="none" stroke="#5A9A00" stroke-linecap="round" stroke-miterlimit="5" x1="47.5" y1="102.142" x2="72.667" y2="102.142"/>
		<polygon fill="#5A9A00" points="71.65,104.174 71.045,103.569 72.472,102.142 71.045,100.715 71.65,100.109 73.683,102.142 		"/>
	</g>
</g>
<g>
	<g>
		
			<line fill="none" stroke="#5A9A00" stroke-linecap="round" stroke-miterlimit="5" x1="47.5" y1="111.381" x2="72.667" y2="111.381"/>
		<polygon fill="#5A9A00" points="71.65,113.414 71.045,112.809 72.472,111.381 71.045,109.955 71.65,109.349 73.683,111.381 		"/>
	</g>
</g>
<g>
	<g>
		
			<line fill="none" stroke="#5A9A00" stroke-linecap="round" stroke-miterlimit="5" x1="47.5" y1="131.206" x2="72.667" y2="131.206"/>
		<polygon fill="#5A9A00" points="71.65,133.238 71.045,132.633 72.472,131.206 71.045,129.779 71.65,129.174 73.683,131.206 		"/>
	</g>
</g>
<g>
	<g>
		
			<line fill="none" stroke="#5A9A00" stroke-linecap="round" stroke-miterlimit="5" x1="47.5" y1="179.976" x2="72.667" y2="179.976"/>
		<polygon fill="#5A9A00" points="71.65,182.008 71.045,181.403 72.472,179.976 71.045,178.549 71.65,177.944 73.683,179.976 		"/>
	</g>
</g>
</svg>
